<?xml version="1.0" encoding="UTF-8"?>
<svg id="_Слой_2" data-name="Слой 2" xmlns="http://www.w3.org/2000/svg" viewBox="0 0 511.5 511.5">
  <defs>
    <style>
      .cls-1 {
        fill: #fff;
      }
    </style>
  </defs>
  <g id="_Слой_1-2" data-name="Слой 1">
    <g>
      <path class="cls-1" d="m347.7,2c-6.7,4.1-7.2,6.1-7.2,29.3s.6,26,6.5,29.7c3,1.9,4.9,2,30.1,2h26.9l-94.7,94.7c-100.9,101.1-97.3,97.2-94.9,104.6,1.3,4,30.3,33.1,34.5,34.7,7.6,2.8,2.6,7.3,104.9-94.9l94.7-94.6v26.9c0,37.9-1.1,36.6,31.7,36.6,23.2,0,25.2-.5,29.3-7.2,1.9-3.2,2-5.2,2-78.3s-.1-75.1-2-78.3c-1.1-1.8-3.4-4.1-5.2-5.2-3.2-1.9-5.2-2-78.3-2s-75.1.1-78.3,2Z"/>
      <path class="cls-1" d="m62.7,39.5c-14.4,3.2-27.2,9.8-37.7,19.7-11.2,10.4-18.3,22.1-22.7,37.5l-2.3,7.8v170.5c0,162.5.1,170.8,1.8,177,8.2,29,28.7,49.5,57.7,57.7,6.2,1.7,14.5,1.8,177,1.8h170.5l7.8-2.3c9.2-2.6,20-7.8,26.7-12.7,11-8.1,21.5-21.9,26.6-34.7,5.4-13.9,5.4-13.6,5.4-109,0-85.8-.1-88.4-2-91.5-4-6.6-5-6.8-29.5-6.8-21.4,0-22.1.1-25.3,2.3-1.7,1.3-3.8,3.3-4.5,4.5-.9,1.7-1.3,22.4-1.7,89.7l-.5,87.5-2.4,3.4c-1.3,1.8-4.2,4.2-6.5,5.2-3.9,1.8-10.2,1.9-164.7,1.9H75.8l-4.3-2.3c-3-1.6-5.1-3.7-6.7-6.7l-2.3-4.3v-160.6c0-154.5.1-160.8,1.9-164.7,1-2.3,3.4-5.2,5.2-6.5l3.4-2.4,91.5-.5c86.1-.5,91.8-.6,94.3-2.3,1.6-1,3.7-3.2,4.7-5,1.8-2.9,2-5.1,2-24,0-23.3-.7-26.3-6.4-29.8-3-1.8-6.8-1.9-96.6-1.8-75.2,0-94.7.3-99.8,1.4Z"/>
    </g>
  </g>
</svg>